<?xml version="1.0" standalone="no"?>
<!DOCTYPE svg PUBLIC "-//W3C//DTD SVG 20010904//EN"
 "http://www.w3.org/TR/2001/REC-SVG-20010904/DTD/svg10.dtd">
<svg version="1.0" xmlns="http://www.w3.org/2000/svg"
 width="1734.000000pt" height="604.000000pt" viewBox="0 0 1734.000000 604.000000"
 preserveAspectRatio="xMidYMid meet">

<g transform="translate(0.000000,604.000000) scale(0.100000,-0.100000)"
fill="#000000" stroke="none">
<path d="M2505 4699 c-363 -19 -630 -95 -660 -188 -14 -47 48 -112 166 -171
230 -117 866 -257 1734 -381 915 -130 1582 -214 2185 -274 195 -20 585 -62
865 -95 720 -84 827 -95 1308 -140 235 -22 631 -62 880 -90 421 -46 1166 -121
1337 -134 l75 -5 -60 25 c-134 57 -297 110 -625 204 -1102 315 -2601 672
-3790 904 -935 182 -1301 232 -2260 311 -511 41 -831 51 -1155 34z"/>
<path d="M4530 3363 c-1309 -31 -2744 -186 -3359 -364 -381 -110 -550 -232
-458 -331 142 -153 635 -222 1682 -237 859 -11 1842 11 3425 79 129 6 442 17
695 25 698 22 950 34 1860 90 825 51 861 53 1300 75 593 30 2782 160 3130 187
l90 6 -50 14 c-147 38 -526 78 -1670 177 -1940 168 -3172 239 -4795 276 -378
8 -1543 11 -1850 3z"/>
<path d="M16965 2963 c-1985 -26 -3541 -85 -5055 -189 -764 -52 -1813 -138
-2260 -184 -157 -17 -517 -53 -800 -80 -662 -64 -981 -99 -1480 -161 -3167
-391 -5750 -1005 -6913 -1642 -219 -120 -341 -214 -409 -314 -59 -86 -50 -170
25 -227 85 -65 231 -110 447 -138 136 -17 739 -17 985 0 1217 86 2930 344
5360 808 337 64 1741 340 3050 600 374 74 849 170 1055 214 206 45 699 146
1095 226 396 80 853 174 1015 210 162 36 439 94 615 130 176 35 500 102 720
149 565 120 1409 296 2355 490 283 58 520 107 525 110 6 2 -28 3 -75 2 -47 -1
-161 -3 -255 -4z"/>
</g>
</svg>
